<svg width="15" height="9" viewBox="0 0 15 9" fill="none" xmlns="http://www.w3.org/2000/svg">
<path fill-rule="evenodd" clip-rule="evenodd" d="M8.21713 0.438646C7.93588 0.157745 7.55463 -3.43323e-05 7.15713 -3.43323e-05C6.75963 -3.43323e-05 6.37838 0.157745 6.09713 0.438646L0.439127 6.09465C0.157865 6.37604 -9.37265e-05 6.75764 4.17235e-08 7.1555C9.38099e-05 7.55336 0.158232 7.93488 0.439627 8.21615C0.721021 8.49741 1.10262 8.65537 1.50048 8.65527C1.89834 8.65518 2.27986 8.49704 2.56113 8.21565L7.15713 3.61965L11.7531 8.21565C12.0359 8.48902 12.4147 8.64039 12.808 8.63716C13.2013 8.63393 13.5776 8.47635 13.8559 8.19837C14.1341 7.92039 14.292 7.54424 14.2956 7.15095C14.2993 6.75765 14.1482 6.37868 13.8751 6.09565L8.21813 0.437645L8.21713 0.438646Z" fill="white"/>
</svg>
